<svg width="32" height="21" viewBox="0 0 32 21" fill="none" xmlns="http://www.w3.org/2000/svg">
<path d="M13.5594 19.1888L0.67013 4.45588C-0.850995 2.72244 0.385255 9.88209e-07 2.69382 9.88209e-07H28.4723C28.989 -0.000441985 29.4948 0.148049 29.9292 0.427691C30.3637 0.707334 30.7083 1.10627 30.9218 1.57674C31.1354 2.0472 31.2088 2.56925 31.1333 3.08035C31.0577 3.59146 30.8365 4.06996 30.496 4.45856L17.6068 19.1861C17.3545 19.4747 17.0434 19.7061 16.6944 19.8646C16.3453 20.0231 15.9664 20.1051 15.5831 20.1051C15.1997 20.1051 14.8208 20.0231 14.4718 19.8646C14.1227 19.7061 13.8116 19.4747 13.5594 19.1861V19.1888Z" fill="#007FB5"/>
</svg>
